<svg xmlns="http://www.w3.org/2000/svg" xml:space="preserve" viewBox="0 0 512 512"><path d="M431.503-319.831a65.627 65.627 0 0 1 51.309 77.172 65.627 65.627 0 0 1-77.02 51.539 65.627 65.627 0 0 1-51.767-76.866 65.627 65.627 0 0 1 76.71-51.996M267.945-319.831a65.627 65.627 0 0 1 51.309 77.172 65.627 65.627 0 0 1-77.02 51.539 65.627 65.627 0 0 1-51.768-76.866 65.627 65.627 0 0 1 76.711-51.996M104.78-319.831a65.627 65.627 0 0 1 51.309 77.172 65.627 65.627 0 0 1-77.02 51.539 65.627 65.627 0 0 1-51.768-76.866 65.627 65.627 0 0 1 76.711-51.996M184.84-464.435a57.02 57.02 0 0 1 44.58 67.053 57.02 57.02 0 0 1-66.92 44.78 57.02 57.02 0 0 1-44.98-66.786 57.02 57.02 0 0 1 66.653-45.179M346.63-464.435a57.02 57.02 0 0 1 44.58 67.053 57.02 57.02 0 0 1-66.92 44.78 57.02 57.02 0 0 1-44.98-66.786 57.02 57.02 0 0 1 66.653-45.179" style="fill:none;fill-rule:evenodd;stroke:#000;stroke-width:16;stroke-linecap:round;stroke-linejoin:round;stroke-dasharray:none;stroke-opacity:1;paint-order:normal" transform="scale(1 -1)"/><path d="M242.742-164.197a10.94 10.94 0 0 1 8.553 12.865 10.94 10.94 0 0 1-12.84 8.592 10.94 10.94 0 0 1-8.63-12.814 10.94 10.94 0 0 1 12.789-8.668M268.842-164.197a10.94 10.94 0 0 1 8.553 12.865 10.94 10.94 0 0 1-12.84 8.592 10.94 10.94 0 0 1-8.63-12.814 10.94 10.94 0 0 1 12.789-8.668" style="fill:#000;fill-rule:evenodd" transform="scale(1 -1)"/><path d="M132.788 102.707c-.072 7.46 5.906 13.572 13.366 13.667h216.23c7.46.006 13.519-6.026 13.546-13.486.028-7.46-5.986-13.537-13.446-13.587H145.82c-7.46-.05-12.96 5.946-13.033 13.406" style="fill:none;fill-rule:evenodd;stroke:#000;stroke-width:16;stroke-linecap:round"/></svg>